<svg width="20" height="20" viewBox="0 0 20 20" fill="none" xmlns="http://www.w3.org/2000/svg">
<path fill-rule="evenodd" clip-rule="evenodd" d="M3.6 0H1.6V3.57608C0.660121 3.9705 0 4.89947 0 5.98261C0 7.06575 0.660121 7.99471 1.6 8.38913V20H3.6V8.39636C4.54912 8.00615 5.21739 7.07242 5.21739 5.98261C5.21739 4.8928 4.54912 3.95907 3.6 3.56886V0ZM10.8 0H8.8V11.0022C7.86012 11.3966 7.2 12.3256 7.2 13.4087C7.2 14.4918 7.86012 15.4208 8.8 15.8152V20H10.8V15.8224C11.7491 15.4322 12.4174 14.4985 12.4174 13.4087C12.4174 12.3189 11.7491 11.3852 10.8 10.9949V0ZM16.4 0H18.4V3.57609C19.3399 3.97051 20 4.89947 20 5.98261C20 7.06575 19.3399 7.99471 18.4 8.38913V20H16.4V8.39636C15.4509 8.00616 14.7826 7.07242 14.7826 5.98261C14.7826 4.89279 15.4509 3.95906 16.4 3.56885V0Z" fill="#A9A9BE"/>
</svg>
