<svg width="115" height="29" viewBox="0 0 115 29" fill="none" xmlns="http://www.w3.org/2000/svg">
<path fill-rule="evenodd" clip-rule="evenodd" d="M14.7092 4.80601C14.548 5.09639 14.2457 5.13609 13.9148 5.05556C10.7699 4.28424 7.393 5.69379 5.76471 8.66489C4.11582 11.6738 4.80708 15.3433 7.22162 17.5721C7.35074 17.6912 7.40122 17.7777 7.42901 17.9564C7.4568 18.1352 7.37976 18.3657 7.37976 18.3657L5.60204 21.6325C5.60204 21.6325 5.50146 21.8622 5.25116 21.9201C5.00133 21.978 4.8725 21.9312 4.78742 21.8738C0.0800915 18.2807 -1.43306 11.6753 1.49834 6.32691C4.41481 1.00508 10.7491 -1.27401 16.2913 0.707041C16.5812 0.868111 16.6883 1.23146 16.528 1.52203L14.7092 4.80601ZM24.3231 10.9915C23.8367 6.30006 20.6809 3.4077 19.5916 2.52002C19.3935 2.35857 19.1971 2.40205 19.1061 2.42833C19.0143 2.45413 18.8112 2.68676 18.8112 2.68676L16.9831 6.04588C16.9831 6.04588 16.8906 6.30195 16.9229 6.42786C16.9291 6.45179 16.9344 6.4753 16.9396 6.49843C16.9619 6.59751 16.9826 6.68946 17.062 6.77675C19.4975 9.46106 20.035 13.1264 18.6197 15.7097C16.9826 18.6968 13.5551 20.0896 10.3961 19.2915C10.217 19.2462 9.99378 19.2151 9.8932 19.2551C9.72523 19.3221 9.63232 19.5552 9.63232 19.5552L7.51383 23.4482L7.51479 23.4485L7.51581 23.4487L6.90972 24.5551L6.91823 24.56L6.90659 24.5796C6.89846 24.5932 6.89036 24.6068 6.88269 24.621C6.2472 25.7807 6.67218 27.2356 7.83209 27.871C8.99097 28.5066 10.4465 28.0817 11.0817 26.9223C11.1045 26.8804 11.1259 26.8378 11.1463 26.7953L12.4731 24.3743C16.6791 24.2705 20.7226 21.9955 22.886 18.0478C23.3507 17.2 24.6888 14.5199 24.3231 10.9915ZM45.0614 18.8055H43.8167V7H45.0614V18.8055ZM37.8332 17.8197C38.6093 17.8197 39.2779 17.6761 39.8384 17.3904C40.3993 17.1049 40.9491 16.7035 41.4879 16.1856L42.3292 17.0108C42.0377 17.3125 41.733 17.585 41.4149 17.8273C41.097 18.0698 40.7544 18.2774 40.3885 18.4496C40.0213 18.6223 39.6286 18.7573 39.208 18.8542C38.7873 18.951 38.3175 18.9998 37.8006 18.9998C36.9815 18.9998 36.2263 18.8484 35.5364 18.547C34.847 18.2455 34.2483 17.8328 33.7415 17.3101C33.2347 16.7867 32.8385 16.1692 32.5527 15.4579C32.2668 14.7465 32.1241 13.9804 32.1241 13.1616C32.1241 12.3534 32.2668 11.5932 32.5527 10.8814C32.8385 10.1691 33.2347 9.54697 33.7415 9.01387C34.2483 8.47972 34.8521 8.05941 35.5528 7.75206C36.2531 7.44489 37.0185 7.29087 37.8492 7.29087C38.3668 7.29087 38.8326 7.33422 39.2482 7.4204C39.6627 7.50675 40.0482 7.62817 40.4042 7.78378C40.76 7.9408 41.0885 8.12884 41.3909 8.34983C41.6926 8.57136 41.9838 8.81667 42.2643 9.08648L41.3909 10.0237C40.9056 9.57146 40.3857 9.19944 39.8302 8.90778C39.2753 8.61735 38.6093 8.47161 37.8332 8.47161C37.2072 8.47161 36.6281 8.59021 36.0942 8.82707C35.5611 9.06498 35.0976 9.39312 34.7037 9.81395C34.31 10.2348 34.0034 10.727 33.7822 11.2934C33.561 11.8595 33.4504 12.472 33.4504 13.1294C33.4504 13.7872 33.561 14.4016 33.7822 14.9727C34.0036 15.5444 34.31 16.0403 34.7037 16.4614C35.0974 16.881 35.5609 17.2126 36.0942 17.4555C36.6281 17.6981 37.2072 17.8197 37.8332 17.8197ZM46.8567 8.61744H48.2797V7.24232H46.8567V8.61744ZM48.1828 18.8055H46.937V10.4448H48.1828V18.8055ZM50.4622 14.1641C50.5053 13.7545 50.6021 13.3774 50.7519 13.032C50.902 12.6876 51.0948 12.388 51.3303 12.1346C51.5661 11.8815 51.8392 11.682 52.1504 11.5361C52.461 11.3909 52.7986 11.3185 53.1627 11.3185C53.5807 11.3185 53.9476 11.3962 54.2645 11.5523C54.5799 11.7087 54.8485 11.9164 55.0681 12.1751C55.2877 12.434 55.4583 12.7357 55.5823 13.0808C55.7054 13.4262 55.7825 13.7866 55.8153 14.1641H50.4622ZM56.0744 11.5608C55.7395 11.162 55.33 10.8462 54.845 10.6148C54.3604 10.3827 53.8098 10.2664 53.1955 10.2664C52.6136 10.2664 52.0775 10.3797 51.5862 10.6065C51.0955 10.8324 50.6731 11.1431 50.3169 11.536C49.9613 11.9302 49.6839 12.3933 49.4837 12.9268C49.2842 13.4609 49.1848 14.0294 49.1848 14.6335C49.1848 15.28 49.2966 15.8731 49.5211 16.4124C49.7442 16.9515 50.0462 17.4129 50.4266 17.7949C50.8058 18.1781 51.2495 18.4741 51.7564 18.6845C52.2625 18.8941 52.8016 19 53.3731 19C54.1714 19 54.8397 18.8564 55.3792 18.5712C55.9181 18.2854 56.3976 17.9053 56.8179 17.431L56.0421 16.7356C55.6967 17.0913 55.3166 17.3771 54.9012 17.5928C54.4864 17.8087 53.988 17.9164 53.4061 17.9164C53.0395 17.9164 52.6885 17.8543 52.3547 17.7299C52.0197 17.6065 51.7187 17.4233 51.449 17.1808C51.1798 16.9379 50.9582 16.641 50.7861 16.2912C50.6135 15.9408 50.5053 15.539 50.4623 15.0859H57.077C57.0872 15.0105 57.0932 14.9404 57.0932 14.8762V14.6979C57.0932 14.0832 57.0068 13.5067 56.8345 12.9669C56.6612 12.4289 56.4083 11.9594 56.0744 11.5608ZM63.6022 10.5093C63.9954 10.671 64.33 10.9007 64.6046 11.1969C64.8797 11.4933 65.0903 11.8465 65.2359 12.256C65.3807 12.666 65.4537 13.1189 65.4537 13.6144V18.8058H64.2088V13.9214C64.2088 13.1453 64.009 12.5306 63.6103 12.0777C63.2108 11.6251 62.6391 11.3989 61.8958 11.3989C61.5402 11.3989 61.208 11.4609 60.9011 11.585C60.5942 11.7087 60.3273 11.8867 60.1007 12.1181C59.8748 12.3503 59.6985 12.6279 59.5752 12.9514C59.4508 13.2747 59.3894 13.631 59.3894 14.0187V18.8058H58.1444V10.4448H59.3896V11.9006C59.6695 11.4477 60.036 11.0621 60.4886 10.744C60.9413 10.4261 61.5292 10.2668 62.2516 10.2668C62.7584 10.2668 63.2082 10.3475 63.6022 10.5093ZM68.6558 7.92202H67.4102V10.4448H66.2459V11.5444H67.4102V16.5899C67.4102 17.0106 67.4698 17.3718 67.5882 17.6737C67.7068 17.9754 67.8714 18.2211 68.0818 18.4096C68.2919 18.5979 68.5422 18.7357 68.834 18.822C69.1244 18.9084 69.4371 18.9514 69.7719 18.9514C70.0732 18.9514 70.3454 18.9214 70.5878 18.8617C70.831 18.8028 71.06 18.714 71.2762 18.5952V17.528C71.0601 17.636 70.8582 17.7112 70.6693 17.7546C70.4803 17.7978 70.2786 17.8186 70.0623 17.8186C69.6427 17.8186 69.3029 17.7167 69.0442 17.5121C68.7847 17.307 68.6562 16.9461 68.6562 16.4285H68.6558V11.5444H71.3077V10.4448H68.6558V7.92202ZM79.2641 11.4799V11.4475H79.2643C79.2643 10.3312 78.4893 9.73347 77.2431 9.73347H75.3191V13.1939H77.2921C78.5368 13.1939 79.2641 12.4502 79.2641 11.4799ZM72.8289 7.48495H77.4543C80.1545 7.48495 81.787 9.08635 81.787 11.3987V11.4313C81.7869 14.0511 79.7497 15.4095 77.2116 15.4095H75.3192V18.8056H72.8289V7.48495ZM88.935 14.5205C88.935 15.7975 88.0947 16.8813 86.6877 16.8813C85.3296 16.8813 84.4078 15.7652 84.4078 14.4875V14.4553C84.4078 13.1776 85.2489 12.0943 86.6559 12.0943C88.0141 12.0943 88.935 13.2099 88.935 14.4875V14.5205ZM86.6877 9.97535C83.9875 9.97535 81.9818 11.9974 81.9818 14.4875V14.5205C81.9818 17.0106 83.9713 18.9999 86.6559 18.9999C89.3563 18.9999 91.3618 16.9784 91.3618 14.4875V14.4551C91.3618 11.965 89.3723 9.97535 86.6877 9.97535ZM94.8871 9.18349H92.2999V7H94.8871V9.18349ZM92.3642 18.806H94.8228V10.1376H92.3642V18.806ZM98.7037 11.367C99.2696 10.6392 99.9971 9.97552 101.243 9.97552C103.102 9.97552 104.186 11.2053 104.186 13.1945V18.8059H101.728V18.8057V13.9703C101.728 12.8058 101.178 12.208 100.24 12.208C99.3024 12.208 98.7037 12.8058 98.7037 13.9703V18.8057H96.2457V10.1373H98.7037V11.367ZM108.536 7.92202H106.077V10.1379H105.042V12.24H106.077V16.3481C106.077 18.3527 107.097 18.9512 108.601 18.9512C109.425 18.9512 110.023 18.757 110.542 18.4502V16.4771C110.185 16.6713 109.782 16.7841 109.328 16.7841C108.778 16.7841 108.536 16.5095 108.536 15.9433V12.24H110.574V10.1379H108.536V7.92202ZM113.301 10.1669C114.133 10.1669 114.775 9.48756 114.775 8.67443V8.66474C114.775 7.85161 114.143 7.18176 113.301 7.18176C112.469 7.18176 111.828 7.86113 111.828 8.67443V8.68412C111.828 9.49725 112.459 10.1669 113.301 10.1669ZM111.636 8.67443C111.636 7.76544 112.373 7.00007 113.301 7.00007C114.239 7.00007 114.966 7.75592 114.966 8.66474V8.67443C114.966 9.58325 114.229 10.3488 113.301 10.3488C112.363 10.3488 111.636 9.59294 111.636 8.68412V8.67443ZM113.398 8.6075H113.078V8.18631H113.398C113.572 8.18631 113.669 8.26297 113.669 8.39708C113.669 8.5215 113.572 8.6075 113.398 8.6075ZM114.173 8.35866C114.173 7.94734 113.863 7.76547 113.427 7.76547H112.574V9.52601H113.078V8.99979H113.291L113.65 9.52601H114.231L113.805 8.91361C114.027 8.82744 114.173 8.63605 114.173 8.35866ZM14.4681 8.03497C16.7609 9.29177 17.6017 12.1697 16.3448 14.463C15.0879 16.7564 12.2102 17.5967 9.91671 16.3398C7.62345 15.0832 6.78284 12.2052 8.03964 9.91176C9.29692 7.61849 12.1742 6.77798 14.4681 8.03497Z" fill="white"/>
</svg>
