<svg width="50" height="43" viewBox="0 0 50 43" fill="none" xmlns="http://www.w3.org/2000/svg">
<path fill-rule="evenodd" clip-rule="evenodd" d="M27.7092 4.80601C27.548 5.09639 27.2457 5.13609 26.9148 5.05556C23.7699 4.28423 20.393 5.69379 18.7647 8.66489C17.1158 11.6738 17.8071 15.3433 20.2216 17.5721C20.3507 17.6912 20.4012 17.7777 20.429 17.9564C20.4568 18.1352 20.3798 18.3657 20.3798 18.3657L18.602 21.6325C18.602 21.6325 18.5015 21.8622 18.2512 21.9201C18.0013 21.978 17.8725 21.9312 17.7874 21.8738C13.0801 18.2807 11.5669 11.6753 14.4983 6.32691C17.4148 1.00508 23.7491 -1.27401 29.2913 0.707041C29.5812 0.868111 29.6883 1.23146 29.528 1.52203L27.7092 4.80601ZM37.3231 10.9913C36.8367 6.29986 33.6809 3.40749 32.5916 2.51981C32.3935 2.35836 32.1971 2.40185 32.1061 2.42812C32.0143 2.45393 31.8112 2.68655 31.8112 2.68655L29.9831 6.04568C29.9831 6.04568 29.8906 6.30175 29.9229 6.42765C29.9291 6.45159 29.9344 6.4751 29.9396 6.49823C29.9619 6.59731 29.9826 6.68926 30.062 6.77655C32.4975 9.46086 33.035 13.1262 31.6197 15.7095C29.9826 18.6966 26.5551 20.0894 23.3961 19.2913C23.2169 19.246 22.9938 19.2149 22.8932 19.2549C22.7252 19.3219 22.6323 19.555 22.6323 19.555L20.5138 23.448L20.5152 23.4484L20.5158 23.4485L19.9097 24.5549L19.9182 24.5598L19.9066 24.5794C19.8985 24.5931 19.8904 24.6066 19.8827 24.6208C19.2472 25.7805 19.6722 27.2354 20.8321 27.8708C21.991 28.5064 23.4465 28.0815 24.0817 26.9221C24.1045 26.8802 24.1259 26.8376 24.1463 26.7951L25.4731 24.3741C29.6791 24.2703 33.7226 21.9953 35.886 18.0476C36.3507 17.1998 37.6888 14.5197 37.3231 10.9913ZM27.468 8.03481C29.7608 9.29161 30.6016 12.1695 29.3447 14.4629C28.0878 16.7562 25.2101 17.5965 22.9166 16.3397C20.6233 15.083 19.7827 12.205 21.0395 9.91159C22.2968 7.61833 25.174 6.77782 27.468 8.03481ZM7.80848 42.5342H7.05722V35.4088H7.80848V42.5342ZM3.44581 41.9392C3.91425 41.9392 4.3178 41.8525 4.65604 41.6801C4.9946 41.5078 5.32646 41.2655 5.65162 40.9529L6.15941 41.451C5.98348 41.6331 5.79957 41.7975 5.60758 41.9438C5.4157 42.0901 5.20893 42.2154 4.98811 42.3193C4.76645 42.4236 4.52946 42.5051 4.27557 42.5636C4.02168 42.622 3.73811 42.6514 3.42614 42.6514C2.93175 42.6514 2.47597 42.5601 2.05955 42.3782C1.64345 42.1962 1.28213 41.9471 0.976222 41.6316C0.670315 41.3157 0.431205 40.943 0.258681 40.5137C0.086156 40.0843 0 39.6219 0 39.1277C0 38.64 0.086156 38.1811 0.258681 37.7515C0.431205 37.3216 0.670315 36.9461 0.976222 36.6243C1.28213 36.3019 1.64654 36.0483 2.06945 35.8628C2.49214 35.6774 2.95409 35.5844 3.45549 35.5844C3.76789 35.5844 4.04901 35.6106 4.29982 35.6626C4.54999 35.7147 4.78272 35.788 4.99758 35.8819C5.21233 35.9767 5.41059 36.0902 5.59312 36.2235C5.77522 36.3572 5.95093 36.5053 6.12027 36.6682L5.59312 37.2338C5.30019 36.9609 4.98641 36.7363 4.65115 36.5603C4.3162 36.385 3.91425 36.297 3.44581 36.297C3.068 36.297 2.71849 36.3686 2.3962 36.5116C2.07444 36.6552 1.7947 36.8532 1.55698 37.1072C1.31936 37.3612 1.13428 37.6583 1.00079 38.0002C0.867303 38.3418 0.800506 38.7115 0.800506 39.1083C0.800506 39.5053 0.867303 39.8761 1.00079 40.2209C1.13439 40.5659 1.31936 40.8652 1.55698 41.1193C1.7946 41.3726 2.07434 41.5728 2.3962 41.7193C2.71849 41.8658 3.068 41.9392 3.44581 41.9392ZM8.89202 36.3851H9.75092V35.5551H8.89202V36.3851ZM9.69242 42.5342H8.94052V37.488H9.69242V42.5342ZM11.0681 39.7328C11.0942 39.4856 11.1526 39.258 11.243 39.0495C11.3336 38.8417 11.45 38.6608 11.5921 38.5079C11.7344 38.3551 11.8993 38.2347 12.0871 38.1467C12.2745 38.059 12.4783 38.0153 12.6981 38.0153C12.9504 38.0153 13.1718 38.0622 13.3631 38.1564C13.5535 38.2508 13.7156 38.3762 13.8481 38.5323C13.9806 38.6886 14.0836 38.8707 14.1585 39.079C14.2327 39.2874 14.2793 39.505 14.2991 39.7328H11.0681ZM14.4555 38.1616C14.2534 37.9208 14.0062 37.7302 13.7134 37.5906C13.4209 37.4505 13.0887 37.3803 12.7179 37.3803C12.3666 37.3803 12.0431 37.4487 11.7465 37.5856C11.4504 37.7219 11.1955 37.9095 10.9805 38.1466C10.7658 38.3845 10.5984 38.664 10.4776 38.986C10.3572 39.3084 10.2972 39.6515 10.2972 40.0161C10.2972 40.4063 10.3646 40.7643 10.5001 41.0898C10.6348 41.4152 10.8171 41.6936 11.0467 41.9242C11.2756 42.1555 11.5434 42.3342 11.8493 42.4612C12.1548 42.5876 12.4801 42.6516 12.8251 42.6516C13.3069 42.6516 13.7103 42.5649 14.0358 42.3928C14.3611 42.2202 14.6505 41.9908 14.9042 41.7046L14.436 41.2849C14.2275 41.4995 13.9981 41.672 13.7474 41.8022C13.497 41.9325 13.1962 41.9975 12.845 41.9975C12.6237 41.9975 12.4119 41.9601 12.2104 41.885C12.0082 41.8105 11.8265 41.6999 11.6638 41.5535C11.5013 41.407 11.3676 41.2277 11.2636 41.0166C11.1595 40.8052 11.0942 40.5626 11.0682 40.2892H15.0606C15.0667 40.2437 15.0703 40.2013 15.0703 40.1626V40.055C15.0703 39.684 15.0182 39.336 14.9142 39.0102C14.8096 38.6855 14.657 38.4022 14.4555 38.1616ZM18.999 37.5269C19.2363 37.6245 19.4382 37.7631 19.604 37.9419C19.77 38.1208 19.8971 38.334 19.985 38.5812C20.0724 38.8286 20.1164 39.1019 20.1164 39.401V42.5344H19.3651V39.5863C19.3651 39.1179 19.2444 38.7469 19.0038 38.4735C18.7627 38.2004 18.4177 38.0638 17.969 38.0638C17.7544 38.0638 17.5539 38.1013 17.3687 38.1761C17.1834 38.2508 17.0224 38.3582 16.8856 38.4979C16.7492 38.6381 16.6429 38.8056 16.5684 39.0009C16.4933 39.196 16.4563 39.411 16.4563 39.645V42.5344H15.7048V37.488H16.4564V38.3666C16.6253 38.0933 16.8465 37.8605 17.1197 37.6686C17.3929 37.4767 17.7478 37.3805 18.1838 37.3805C18.4897 37.3805 18.7611 37.4292 18.999 37.5269ZM22.0491 35.9653H21.2973V37.488H20.5946V38.1517H21.2973V41.1969C21.2973 41.4508 21.3333 41.6689 21.4047 41.8511C21.4763 42.0332 21.5757 42.1814 21.7027 42.2952C21.8295 42.4088 21.9805 42.492 22.1566 42.5441C22.3319 42.5963 22.5206 42.6222 22.7227 42.6222C22.9046 42.6222 23.0688 42.6041 23.2152 42.5681C23.362 42.5325 23.5001 42.4789 23.6307 42.4072V41.7631C23.5003 41.8283 23.3784 41.8737 23.2643 41.8999C23.1503 41.9259 23.0285 41.9385 22.898 41.9385C22.6448 41.9385 22.4397 41.877 22.2835 41.7535C22.1269 41.6297 22.0493 41.4119 22.0493 41.0995H22.0491V38.1517H23.6497V37.488H22.0491V35.9653ZM28.4519 38.1127V38.0932H28.452C28.452 37.4194 27.9842 37.0587 27.2321 37.0587H26.0708V39.1472H27.2616C28.0129 39.1472 28.4519 38.6984 28.4519 38.1127ZM24.5678 35.7015H27.3595C28.9892 35.7015 29.9746 36.6681 29.9746 38.0637V38.0834C29.9745 39.6646 28.7449 40.4845 27.213 40.4845H26.0709V42.5342H24.5678V35.7015ZM34.2888 39.9479C34.2888 40.7186 33.7816 41.3728 32.9324 41.3728C32.1127 41.3728 31.5563 40.6992 31.5563 39.928V39.9086C31.5563 39.1374 32.064 38.4836 32.9132 38.4836C33.733 38.4836 34.2888 39.1569 34.2888 39.928V39.9479ZM32.9324 37.2046C31.3027 37.2046 30.0921 38.4251 30.0921 39.928V39.9479C30.0921 41.4509 31.2929 42.6515 32.9132 42.6515C34.5431 42.6515 35.7535 41.4314 35.7535 39.928V39.9084C35.7535 38.4055 34.5528 37.2046 32.9324 37.2046ZM37.8813 36.7267H36.3197V35.4088H37.8813V36.7267ZM36.3585 42.5345H37.8424V37.3026H36.3585V42.5345ZM40.1848 38.0446C40.5263 37.6053 40.9654 37.2047 41.7173 37.2047C42.8391 37.2047 43.4935 37.947 43.4935 39.1476V42.5344H42.0102V42.5343V39.6158C42.0102 38.913 41.6781 38.5522 41.1119 38.5522C40.5461 38.5522 40.1848 38.913 40.1848 39.6158V42.5343H38.7012V37.3024H40.1848V38.0446ZM46.119 35.9653H44.6352V37.3028H44.0105V38.5715H44.6352V41.051C44.6352 42.2609 45.2506 42.6221 46.1583 42.6221C46.6556 42.6221 47.0168 42.5049 47.3297 42.3197V41.1288C47.1147 41.2461 46.871 41.3141 46.5972 41.3141C46.2655 41.3141 46.119 41.1484 46.119 40.8067V38.5715H47.3492V37.3028H46.119V35.9653ZM48.9952 37.3203C49.4975 37.3203 49.8845 36.9102 49.8845 36.4195V36.4136C49.8845 35.9228 49.5034 35.5185 48.9952 35.5185C48.4927 35.5185 48.1058 35.9286 48.1058 36.4195V36.4253C48.1058 36.9161 48.487 37.3203 48.9952 37.3203ZM47.9903 36.4195C47.9903 35.8708 48.435 35.4089 48.9952 35.4089C49.5611 35.4089 50 35.8651 50 36.4136V36.4195C50 36.968 49.5554 37.43 48.9952 37.43C48.4292 37.43 47.9903 36.9738 47.9903 36.4253V36.4195ZM49.0534 36.3791H48.8604V36.1249H49.0534C49.1588 36.1249 49.2173 36.1711 49.2173 36.2521C49.2173 36.3272 49.1588 36.3791 49.0534 36.3791ZM49.5214 36.2289C49.5214 35.9806 49.3342 35.8708 49.071 35.8708H48.5564V36.9334H48.8604V36.6158H48.989L49.2056 36.9334H49.5564L49.2991 36.5638C49.4336 36.5118 49.5214 36.3963 49.5214 36.2289Z" fill="white"/>
</svg>
