<svg width="106" height="32" viewBox="0 0 106 32" fill="none" xmlns="http://www.w3.org/2000/svg">
<path fill-rule="evenodd" clip-rule="evenodd" d="M11.48 14.449V5.974H15.175V26.205H11.479V18.005H3.695V26.205H0V5.974H3.694V14.449H11.48ZM23.9445 22.7235C25.6331 22.7235 27.002 21.3546 27.002 19.666V11H30.494V19.666C30.494 23.2868 27.5588 26.222 23.938 26.222C20.3172 26.222 17.382 23.2868 17.382 19.666V11H20.887V19.666C20.887 21.3546 22.2559 22.7235 23.9445 22.7235ZM52.973 11.893C52.973 10.116 54.148 9.553 55.435 9.553C56.473 9.553 57.843 10.343 58.74 11.301L61.035 8.595C59.889 7.045 57.565 5.974 55.662 5.974C51.859 5.974 49.109 8.201 49.109 11.893C49.109 15.8115 51.8485 16.777 54.1934 17.6035C55.9477 18.2218 57.481 18.7622 57.481 20.403C57.481 21.585 56.333 22.629 55.019 22.629C53.1349 22.629 52.4081 21.7923 51.5766 20.8349L51.5765 20.8348L51.5749 20.8329C51.4921 20.7376 51.4082 20.641 51.322 20.544L48.774 23.193C50.404 25.193 52.414 26.209 54.821 26.209C58.434 26.209 61.34 23.955 61.34 20.431C61.34 15.8461 58.2959 14.8848 55.8786 14.1215C54.2869 13.6188 52.967 13.202 52.967 11.893H52.973ZM102.107 20.705C102.107 22.077 102.696 22.973 104.767 22.973V22.97C105.16 22.97 105.609 22.943 106 22.916L105.133 26.108C104.671 26.19 104.201 26.228 103.731 26.22C100.737 26.22 98.553 24.625 98.553 21.46V9.086L102.107 7.491V11.552H105.327V14.63H102.107V20.705ZM40.344 11.101C38.608 11.101 37.396 11.605 36.224 12.754V6.095H32.714V18.438C32.714 23.058 36.054 26.224 39.808 26.224C43.972 26.224 47.635 23.002 47.635 18.664C47.635 14.38 44.264 11.104 40.344 11.104V11.101ZM36.8722 20.6992C37.5838 21.9317 38.8988 22.691 40.322 22.691C42.522 22.691 44.3055 20.9075 44.3055 18.7075C44.3055 16.5075 42.522 14.724 40.322 14.724C38.8988 14.724 37.5838 15.4832 36.8722 16.7157C36.1606 17.9482 36.1606 19.4668 36.8722 20.6992ZM78.464 18.48C78.464 14.134 74.809 10.92 70.637 10.92C66.884 10.92 63.543 14.085 63.543 18.706V31.056H67.053V24.388C68.223 25.535 69.437 26.041 71.171 26.041C75.091 26.041 78.463 22.765 78.463 18.48H78.464ZM71.1565 22.4195C73.3565 22.4195 75.14 20.636 75.14 18.436C75.14 16.236 73.3565 14.4525 71.1565 14.4525C68.9565 14.4525 67.173 16.236 67.173 18.436C67.173 20.636 68.9565 22.4195 71.1565 22.4195Z" fill="#33475B"/>
<path fill-rule="evenodd" clip-rule="evenodd" d="M89.8061 7.223V10.75C93.0012 11.235 95.5572 13.6569 96.2134 16.8213C96.8696 19.9857 95.4875 23.2242 92.7487 24.9398C90.0099 26.6553 86.4928 26.4854 83.9321 24.514L81.0661 27.381C81.1411 27.6152 81.1808 27.8592 81.1841 28.105C81.183 29.4924 80.0578 30.6164 78.6704 30.616C77.283 30.6156 76.1584 29.491 76.1581 28.1037C76.1577 26.7163 77.2817 25.5911 78.6691 25.59C78.9149 25.5933 79.1589 25.6331 79.3931 25.708L82.2901 22.81C80.4678 20.2131 80.421 16.7654 82.1721 14.12L72.6471 6.708C72.1892 6.97414 71.6696 7.11551 71.1401 7.118C69.9022 7.11638 68.7873 6.36916 68.3153 5.22485C67.8433 4.08055 68.1072 2.76458 68.9839 1.89072C69.8606 1.01687 71.1774 0.757289 72.3202 1.23304C73.4629 1.7088 74.2065 2.82617 74.2041 4.064C74.2001 4.321 74.1641 4.577 74.0951 4.826L83.7681 12.36C84.8239 11.5105 86.0855 10.9551 87.4251 10.75V7.223C86.4737 6.77837 85.8639 5.82513 85.8591 4.775V4.694C85.8591 3.194 87.0751 1.978 88.5751 1.978H88.6561C90.1561 1.978 91.3721 3.194 91.3721 4.694V4.775C91.3672 5.82513 90.7574 6.77837 89.8061 7.223ZM85.0935 20.4004C85.8263 21.643 87.176 22.3897 88.6181 22.35L88.6221 22.348C90.7557 22.2711 92.4454 20.5186 92.4443 18.3836C92.4432 16.2485 90.7518 14.4977 88.6181 14.423C87.176 14.3833 85.8263 15.13 85.0935 16.3726C84.3608 17.6152 84.3608 19.1578 85.0935 20.4004Z" fill="#FF7A59"/>
</svg>
