<svg width="58" height="58" viewBox="0 0 58 58" fill="none" xmlns="http://www.w3.org/2000/svg">
<path fill-rule="evenodd" clip-rule="evenodd" d="M29 58C45.0163 58 58 45.0163 58 29C58 12.9837 45.0163 0 29 0C12.9837 0 0 12.9837 0 29C0 45.0163 12.9837 58 29 58Z" fill="#FFE5ED"/>
<path d="M15.793 31.9268H20.5098V33H14.4736V23.0469H15.793V31.9268ZM21.4736 29.2334C21.4736 28.5088 21.6149 27.8571 21.8975 27.2783C22.1846 26.6995 22.5811 26.2529 23.0869 25.9385C23.5973 25.624 24.1784 25.4668 24.8301 25.4668C25.8372 25.4668 26.6507 25.8154 27.2705 26.5127C27.8949 27.21 28.207 28.1374 28.207 29.2949V29.3838C28.207 30.1038 28.068 30.751 27.79 31.3252C27.5166 31.8949 27.1224 32.3392 26.6074 32.6582C26.097 32.9772 25.5091 33.1367 24.8438 33.1367C23.8411 33.1367 23.0277 32.7881 22.4033 32.0908C21.7835 31.3936 21.4736 30.4707 21.4736 29.3223V29.2334ZM22.7451 29.3838C22.7451 30.2041 22.9342 30.8626 23.3125 31.3594C23.6953 31.8561 24.2057 32.1045 24.8438 32.1045C25.4863 32.1045 25.9967 31.8538 26.375 31.3525C26.7533 30.8467 26.9424 30.1403 26.9424 29.2334C26.9424 28.4222 26.7487 27.766 26.3613 27.2646C25.9785 26.7588 25.4681 26.5059 24.8301 26.5059C24.2057 26.5059 23.7021 26.7542 23.3193 27.251C22.9365 27.7477 22.7451 28.4587 22.7451 29.3838ZM29.4922 29.2402C29.4922 28.0872 29.7588 27.1712 30.292 26.4922C30.8252 25.8086 31.5316 25.4668 32.4111 25.4668C33.3135 25.4668 34.0176 25.7858 34.5234 26.4238L34.585 25.6035H35.7402V32.8223C35.7402 33.7793 35.4554 34.5335 34.8857 35.085C34.3206 35.6364 33.5596 35.9121 32.6025 35.9121C32.0693 35.9121 31.5475 35.7982 31.0371 35.5703C30.5267 35.3424 30.137 35.0303 29.8682 34.6338L30.5244 33.875C31.0667 34.5449 31.7298 34.8799 32.5137 34.8799C33.1289 34.8799 33.6074 34.7067 33.9492 34.3604C34.2956 34.014 34.4688 33.5264 34.4688 32.8975V32.2617C33.9629 32.8451 33.2725 33.1367 32.3975 33.1367C31.5316 33.1367 30.8298 32.7881 30.292 32.0908C29.7588 31.3936 29.4922 30.4434 29.4922 29.2402ZM30.7637 29.3838C30.7637 30.2178 30.9346 30.874 31.2764 31.3525C31.6182 31.8265 32.0967 32.0635 32.7119 32.0635C33.5094 32.0635 34.0951 31.7012 34.4688 30.9766V27.5996C34.0814 26.8932 33.5003 26.54 32.7256 26.54C32.1104 26.54 31.6296 26.7793 31.2832 27.2578C30.9368 27.7363 30.7637 28.445 30.7637 29.3838ZM37.3193 29.2334C37.3193 28.5088 37.4606 27.8571 37.7432 27.2783C38.0303 26.6995 38.4268 26.2529 38.9326 25.9385C39.443 25.624 40.0241 25.4668 40.6758 25.4668C41.6829 25.4668 42.4964 25.8154 43.1162 26.5127C43.7406 27.21 44.0527 28.1374 44.0527 29.2949V29.3838C44.0527 30.1038 43.9137 30.751 43.6357 31.3252C43.3623 31.8949 42.9681 32.3392 42.4531 32.6582C41.9427 32.9772 41.3548 33.1367 40.6895 33.1367C39.6868 33.1367 38.8734 32.7881 38.249 32.0908C37.6292 31.3936 37.3193 30.4707 37.3193 29.3223V29.2334ZM38.5908 29.3838C38.5908 30.2041 38.7799 30.8626 39.1582 31.3594C39.541 31.8561 40.0514 32.1045 40.6895 32.1045C41.332 32.1045 41.8424 31.8538 42.2207 31.3525C42.599 30.8467 42.7881 30.1403 42.7881 29.2334C42.7881 28.4222 42.5944 27.766 42.207 27.2646C41.8242 26.7588 41.3138 26.5059 40.6758 26.5059C40.0514 26.5059 39.5479 26.7542 39.165 27.251C38.7822 27.7477 38.5908 28.4587 38.5908 29.3838Z" fill="#53547D"/>
</svg>
