<svg width="11" height="15" viewBox="0 0 11 15" fill="none" xmlns="http://www.w3.org/2000/svg">
<path fill-rule="evenodd" clip-rule="evenodd" d="M5.35714 0C3.28608 0 1.60714 1.67893 1.60714 3.75V4.62797C0.651686 5.12973 0 6.13162 0 7.28571V12C0 13.6569 1.34314 15 3 15H7.71429C9.37114 15 10.7143 13.6569 10.7143 12V7.28571C10.7143 6.13162 10.0626 5.12973 9.10714 4.62797V3.75C9.10714 1.67893 7.42821 0 5.35714 0ZM7.71429 4.28571C7.82287 4.28571 7.93011 4.29148 8.03571 4.30273V3.75C8.03571 2.27067 6.83648 1.07143 5.35714 1.07143C3.87781 1.07143 2.67857 2.27067 2.67857 3.75V4.30273C2.78417 4.29148 2.89141 4.28571 3 4.28571H7.71429ZM5.35714 9.64286C5.40161 9.64286 5.44545 9.64015 5.4885 9.63488L5.81867 11.2857H4.89562L5.22578 9.63488C5.26883 9.64015 5.31267 9.64286 5.35714 9.64286ZM4.28571 8.57143C4.28571 8.69703 4.30733 8.81759 4.34704 8.92958L4.33114 9.00908L3.79542 11.6877L3.67581 12.2857H4.28571H6.42857H7.03847L6.91886 11.6877L6.38315 9.00908L6.36725 8.92958C6.40696 8.81759 6.42857 8.69703 6.42857 8.57143C6.42857 7.97969 5.94888 7.5 5.35714 7.5C4.76541 7.5 4.28571 7.97969 4.28571 8.57143Z" fill="#B8A05C"/>
</svg>
