<svg width="139" height="33" viewBox="0 0 139 33" fill="none" xmlns="http://www.w3.org/2000/svg">
<path fill-rule="evenodd" clip-rule="evenodd" d="M17.2336 5.63082C17.0448 5.97104 16.6905 6.01755 16.3029 5.92319C12.6182 5.0195 8.66179 6.67096 6.75406 10.152C4.82218 13.6773 5.63208 17.9765 8.461 20.5879C8.61228 20.7273 8.67142 20.8288 8.70398 21.0381C8.73654 21.2476 8.64628 21.5176 8.64628 21.5176L6.56346 25.3451C6.56346 25.3451 6.44562 25.6142 6.15237 25.682C5.85966 25.7499 5.70871 25.6951 5.60904 25.6278C0.0938363 21.418 -1.679 13.679 1.75549 7.41274C5.17248 1.17757 12.5939 -1.49265 19.0872 0.828383C19.4268 1.0171 19.5523 1.44281 19.3645 1.78324L17.2336 5.63082ZM28.4974 12.8779C27.9276 7.38128 24.2302 3.99253 22.954 2.9525C22.7218 2.76335 22.4917 2.81429 22.385 2.84508C22.2775 2.87531 22.0396 3.14786 22.0396 3.14786L19.8978 7.08348C19.8978 7.08348 19.7894 7.38349 19.8272 7.53101C19.8344 7.55905 19.8406 7.5866 19.8468 7.61369C19.8729 7.72977 19.8972 7.8375 19.9901 7.93977C22.8436 11.0848 23.4735 15.3791 21.8153 18.4058C19.8971 21.9055 15.8814 23.5374 12.1803 22.6024C11.9704 22.5492 11.7089 22.5128 11.5911 22.5597C11.3943 22.6381 11.2854 22.9112 11.2854 22.9112L8.80335 27.4724C8.80446 27.4728 8.8049 27.4728 8.80568 27.473L8.09557 28.7692L8.10554 28.775L8.09192 28.798C8.08239 28.8139 8.07289 28.8299 8.06389 28.8465C7.31934 30.2051 7.81726 31.9098 9.17624 32.6542C10.534 33.3989 12.2393 32.9011 12.9835 31.5427C13.0103 31.4936 13.0353 31.4437 13.0593 31.3939L14.6137 28.5575C19.5416 28.4359 24.279 25.7704 26.8137 21.1451C27.3581 20.1519 28.9259 17.0118 28.4974 12.8779ZM19.1499 16.9452C20.6225 14.2582 19.6374 10.8864 16.9511 9.41393C14.2635 7.94122 10.8925 8.92598 9.41941 11.6128C7.94691 14.2999 8.93179 17.6718 11.6186 19.1441C14.3057 20.6167 17.6773 19.6321 19.1499 16.9452Z" fill="white"/>
<path fill-rule="evenodd" clip-rule="evenodd" d="M47.8789 22.5225H49.4628V7.5H47.8789V22.5225ZM42.8164 20.7218C42.1033 21.0853 41.2525 21.2681 40.2649 21.2681C39.4683 21.2681 38.7315 21.1134 38.052 20.8046C37.3734 20.4956 36.7836 20.0735 36.2826 19.5396C35.7816 19.0038 35.3917 18.3728 35.11 17.6453C34.8286 16.9185 34.6877 16.1368 34.6877 15.2996C34.6877 14.4632 34.8286 13.6837 35.11 12.9634C35.3914 12.2426 35.7816 11.6163 36.2826 11.0808C36.7838 10.5452 37.3736 10.1277 38.052 9.82494C38.7315 9.52355 39.4683 9.37262 40.2649 9.37262C41.2525 9.37262 42.1 9.55808 42.8061 9.92765C43.513 10.2988 44.1745 10.7722 44.7921 11.3476L45.9035 10.155C45.5465 9.81171 45.176 9.49955 44.7921 9.21766C44.4073 8.93645 43.9893 8.69717 43.5365 8.49736C43.0835 8.29935 42.5929 8.14484 42.0654 8.03496C41.5366 7.9253 40.9439 7.87013 40.2853 7.87013C39.2282 7.87013 38.2542 8.06613 37.3631 8.457C36.4714 8.8481 35.7031 9.38294 35.0582 10.0626C34.4132 10.741 33.9091 11.5326 33.5454 12.4391C33.1816 13.3448 33 14.3122 33 15.3407C33 16.3825 33.1816 17.3574 33.5454 18.2627C33.9091 19.1678 34.4132 19.9535 35.0582 20.6196C35.7031 21.2847 36.4649 21.8099 37.3422 22.1936C38.2202 22.5771 39.1811 22.7697 40.2234 22.7697C40.8811 22.7697 41.479 22.7076 42.0143 22.5845C42.5496 22.4611 43.0492 22.2894 43.5166 22.0696C43.9821 21.8505 44.4181 21.5863 44.8226 21.2778C45.2274 20.9694 45.6151 20.6227 45.986 20.2388L44.9154 19.1886C44.2299 19.8477 43.5302 20.3585 42.8164 20.7218ZM53.5581 9.55819H51.7473V7.80835H53.5581V9.55819ZM51.8495 22.5225H53.4348V11.8835H51.8495V22.5225ZM56.7039 15.1757C56.5133 15.6152 56.3902 16.0951 56.3352 16.6163H63.1471C63.1054 16.1359 63.0072 15.6773 62.8507 15.2378C62.6928 14.7987 62.4757 14.4148 62.1963 14.0854C61.9169 13.7562 61.5751 13.4918 61.1737 13.2929C60.7705 13.0942 60.3036 12.9953 59.7717 12.9953C59.3084 12.9953 58.8787 13.0874 58.4836 13.2722C58.0875 13.4579 57.7399 13.7118 57.4399 14.0338C57.1403 14.3563 56.895 14.7375 56.7039 15.1757ZM61.9124 12.0998C62.5295 12.3943 63.0507 12.7961 63.4768 13.3036C63.9017 13.8109 64.2235 14.4083 64.444 15.0929C64.6633 15.7798 64.7732 16.5133 64.7732 17.2955V17.5225C64.7732 17.6041 64.7656 17.6934 64.7526 17.7893H56.3355C56.3902 18.3659 56.5279 18.8772 56.7474 19.323C56.9665 19.7682 57.2484 20.146 57.591 20.455C57.9342 20.7636 58.3172 20.9968 58.7435 21.1538C59.1682 21.3121 59.6149 21.3911 60.0814 21.3911C60.8219 21.3911 61.456 21.2541 61.9839 20.9793C62.5125 20.7049 62.9962 20.3411 63.4357 19.8886L64.4229 20.7735C63.8881 21.3769 63.2779 21.8607 62.5921 22.2244C61.9057 22.5872 61.0553 22.77 60.0394 22.77C59.3122 22.77 58.6262 22.6352 57.9821 22.3686C57.3372 22.1008 56.7725 21.7241 56.2899 21.2366C55.806 20.7504 55.4216 20.1633 55.1377 19.4773C54.852 18.7911 54.7098 18.0362 54.7098 17.2137C54.7098 16.445 54.8363 15.7215 55.0902 15.0418C55.3449 14.363 55.6979 13.7737 56.1504 13.272C56.6037 12.7721 57.1412 12.3768 57.7655 12.0893C58.3907 11.8007 59.0729 11.6565 59.8134 11.6565C60.5951 11.6565 61.2957 11.8045 61.9124 12.0998ZM74.3315 12.8406C73.9821 12.4636 73.5563 12.1714 73.056 11.9655C72.5545 11.7597 71.9822 11.657 71.3373 11.657C70.4181 11.657 69.67 11.8597 69.0939 12.2642C68.518 12.669 68.0515 13.1597 67.6954 13.736V11.8834H66.1109V22.5229H67.6952V16.4313C67.6952 15.9379 67.7732 15.4845 67.9316 15.0732C68.0885 14.6615 68.3128 14.3083 68.6003 14.0127C68.8887 13.7183 69.2282 13.4918 69.6188 13.3344C70.0093 13.1765 70.432 13.0976 70.8845 13.0976C71.8304 13.0976 72.5579 13.3855 73.0663 13.9614C73.5735 14.5377 73.8278 15.3199 73.8278 16.3075V22.5229H75.412V15.9169C75.412 15.2863 75.3191 14.7099 75.1348 14.1883C74.9496 13.6672 74.6816 13.2178 74.3315 12.8406ZM77.9017 8.67327H79.4867V11.8834H82.8612V13.2828H79.4867V19.4977H79.4871C79.4871 20.1564 79.6506 20.6156 79.9809 20.8767C80.3101 21.137 80.7425 21.2666 81.2764 21.2666C81.5516 21.2666 81.8084 21.2402 82.0488 21.1852C82.2892 21.1301 82.5462 21.0343 82.8211 20.8968V22.2549C82.5459 22.4061 82.2546 22.5191 81.9452 22.594C81.6366 22.67 81.2903 22.7081 80.9069 22.7081C80.4808 22.7081 80.083 22.6534 79.7134 22.5435C79.342 22.4336 79.0236 22.2583 78.7563 22.0188C78.4885 21.7788 78.2791 21.4662 78.1282 21.0823C77.9775 20.6982 77.9017 20.2384 77.9017 19.7031V13.2828H76.42V11.8834H77.9017V8.67327ZM92.9858 13.1594V13.2007C92.9858 14.4354 92.0603 15.3818 90.4764 15.3818H87.9656V10.9783H90.414C91.9997 10.9783 92.986 11.739 92.986 13.1594H92.9858ZM90.6827 8.1171H84.7969V22.5226H87.9659V18.2011H90.3739C93.6036 18.2011 96.1959 16.4725 96.1962 13.1388V13.0973C96.1962 10.1549 94.1187 8.1171 90.6827 8.1171ZM102.432 20.0739C104.223 20.0739 105.292 18.6948 105.292 17.0698V17.0279C105.292 15.4021 104.12 13.9825 102.392 13.9825C100.601 13.9825 99.531 15.361 99.531 16.9869V17.0279C99.531 18.6537 100.704 20.0739 102.432 20.0739ZM96.444 17.0279C96.444 13.8592 98.9962 11.2861 102.432 11.2861C105.848 11.2861 108.38 13.8179 108.38 16.9866V17.0279C108.38 20.1975 105.828 22.7699 102.392 22.7699C98.9756 22.7699 96.444 20.2385 96.444 17.0698V17.0279ZM109.574 10.2785H112.866V7.5H109.574V10.2785ZM112.784 22.5231H109.656V11.4926H112.784V22.5231ZM120.954 11.2864C119.368 11.2864 118.443 12.1309 117.723 13.0571V11.4922H114.595V22.5228H117.723V16.3697C117.723 14.8879 118.484 14.1272 119.677 14.1272C120.871 14.1272 121.571 14.8879 121.571 16.3697V22.5228V22.523H124.698V15.3826C124.698 12.8512 123.319 11.2864 120.954 11.2864ZM127.106 8.67327H130.234V11.493H132.828V14.1679H130.234V18.8804C130.234 19.6009 130.543 19.9503 131.242 19.9503C131.819 19.9503 132.333 19.8067 132.786 19.5596V22.0704C132.127 22.4608 131.365 22.7079 130.317 22.7079C128.403 22.7079 127.106 21.9463 127.106 19.3955V14.1679H125.788V11.493H127.106V8.67327ZM138.173 9.63072C138.173 10.6654 137.357 11.5299 136.298 11.5299C135.226 11.5299 134.423 10.6778 134.423 9.64305V9.63072C134.423 8.59579 135.238 7.73129 136.298 7.73129C137.369 7.73129 138.173 8.58368 138.173 9.61838V9.63072ZM136.298 7.50009C135.117 7.50009 134.179 8.47402 134.179 9.63072V9.64305C134.179 10.7995 135.104 11.7613 136.298 11.7613C137.479 11.7613 138.416 10.7872 138.416 9.63072V9.61838C138.416 8.46191 137.491 7.50009 136.298 7.50009ZM136.006 9.54554H136.407C136.627 9.54554 136.748 9.43611 136.748 9.27779C136.748 9.10713 136.627 9.00958 136.407 9.00958H136.006V9.54554ZM136.444 8.47406C136.992 8.47406 137.382 8.70549 137.382 9.2289C137.382 9.58187 137.199 9.82541 136.919 9.93507L137.454 10.7143H136.724L136.273 10.0447H136.006V10.7143H135.373V8.47406H136.444Z" fill="white"/>
</svg>
