<svg width="26" height="25" viewBox="0 0 26 25" fill="none" xmlns="http://www.w3.org/2000/svg">
<path fill-rule="evenodd" clip-rule="evenodd" d="M16.2147 5.65126C18.7669 8.20348 19.0025 12.1951 16.9214 15.013L20.2876 18.3792C20.7094 18.801 20.7094 19.4848 20.2876 19.9065C19.8658 20.3283 19.182 20.3283 18.7603 19.9065L15.3941 16.5404C12.5761 18.6214 8.58455 18.3858 6.03233 15.8336C3.22056 13.0218 3.22056 8.46304 6.03233 5.65126C8.84411 2.83949 13.4029 2.83949 16.2147 5.65126ZM14.6873 7.17861C16.6556 9.14686 16.6556 12.338 14.6873 14.3062C12.7191 16.2745 9.52792 16.2745 7.55968 14.3062C5.59144 12.338 5.59144 9.14686 7.55968 7.17861C9.52792 5.21037 12.7191 5.21037 14.6873 7.17861Z" fill="#5F63FF"/>
</svg>
