<svg width="107" height="25" viewBox="0 0 107 25" fill="none" xmlns="http://www.w3.org/2000/svg">
<path fill-rule="evenodd" clip-rule="evenodd" d="M56.0411 1.59101H106.262V0.709351H56.0411V1.59101ZM56.0411 24.4089H106.262V23.5273H56.0411V24.4089ZM63.0148 18.1691V15.6405C63.0148 14.1532 62.6179 13.3351 61.3544 12.4179L58.9491 10.6826C58.379 10.2614 58.0568 9.88937 58.0568 9.02208V6.84063C58.0568 5.94763 58.478 5.52647 59.3703 5.52647H59.7173C60.6103 5.52647 61.0315 5.94763 61.0315 6.84063V8.40205H62.9649V6.91473C62.9649 4.80814 61.9237 3.74199 59.7922 3.74199H59.2962C57.1397 3.74199 56.0735 4.80814 56.0735 6.96464V9.04628C56.0735 10.4595 56.4455 11.3517 57.7347 12.2689L60.1634 14.0292C60.7343 14.4504 61.0315 14.8224 61.0315 15.6897V18.2931C61.0315 19.1853 60.6103 19.6065 59.7173 19.6065H59.3211C58.4289 19.6065 58.0069 19.1853 58.0069 18.2931V15.8016H56.0735V18.2182C56.0735 20.3256 57.1147 21.3917 59.247 21.3917H59.7922C61.9487 21.3917 63.0148 20.3256 63.0148 18.1691ZM66.0583 21.2428V5.72465H63.4557V3.89026H70.6443V5.72465H68.0417V21.2428H66.0583ZM75.2433 21.3916C77.3998 21.3916 78.4659 20.3254 78.4659 18.1689V3.89004H76.4826V18.268C76.4826 19.161 76.0614 19.5821 75.1692 19.5821H74.6981C73.8051 19.5821 73.3839 19.161 73.3839 18.268V3.89004H71.4006V18.1689C71.4006 20.3254 72.4668 21.3916 74.6233 21.3916H75.2433ZM83.003 3.89072H79.7304V21.2425H83.003C85.6056 21.2425 86.8449 20.0032 86.8449 17.4006V7.73264C86.8449 5.13002 85.6056 3.89072 83.003 3.89072ZM82.9039 19.4331H81.7138V5.70015H82.9039C84.2423 5.70015 84.8623 6.36933 84.8623 7.70769V17.4256C84.8623 18.7639 84.2423 19.4331 82.9039 19.4331ZM88.0385 21.243H90.0219V3.89041H88.0385V21.243ZM94.4377 21.3915H95.181C97.3383 21.3915 98.4037 20.3261 98.4037 18.1688V6.96441C98.4037 4.80791 97.3383 3.74176 95.181 3.74176H94.4377C92.2812 3.74176 91.2151 4.80791 91.2151 6.96441V18.1688C91.2151 20.3261 92.2812 21.3915 94.4377 21.3915ZM94.5118 5.55119H95.1069C95.9991 5.55119 96.4203 5.97312 96.4203 6.86536V18.2679C96.4203 19.1609 95.9991 19.5821 95.1069 19.5821H94.5118C93.6196 19.5821 93.1984 19.1609 93.1984 18.2679V6.86536C93.1984 5.97312 93.6196 5.55119 94.5118 5.55119ZM106.219 18.1691V15.6405C106.219 14.1532 105.822 13.3351 104.559 12.4179L102.154 10.6826C101.583 10.2614 101.261 9.88937 101.261 9.02208V6.84063C101.261 5.94763 101.682 5.52647 102.575 5.52647H102.922C103.815 5.52647 104.236 5.94763 104.236 6.84063V8.40205H106.17V6.91473C106.17 4.80814 105.128 3.74199 102.997 3.74199H102.501C100.344 3.74199 99.278 4.80814 99.278 6.96464V9.04628C99.278 10.4595 99.65 11.3517 100.939 12.2689L103.368 14.0292C103.939 14.4504 104.236 14.8224 104.236 15.6897V18.2931C104.236 19.1853 103.815 19.6065 102.922 19.6065H102.526C101.633 19.6065 101.211 19.1853 101.211 18.2931V15.8016H99.278V18.2182C99.278 20.3256 100.319 21.3917 102.451 21.3917H102.997C105.153 21.3917 106.219 20.3256 106.219 18.1691Z" fill="white"/>
<path d="M0.428833 24.418H53.0725V0.705566H0.428833V24.418Z" fill="#E50B14"/>
<path fill-rule="evenodd" clip-rule="evenodd" d="M45.5852 21.234H51.3576V18.1134H48.6937V3.88293H45.5852V21.234ZM42.2339 7.04963H45.0437V3.88596H36.2407L34.792 14.4537L33.3599 3.88596H30.1864L30.5418 6.7071C30.175 5.98424 28.876 3.88596 26.0155 3.88596C25.9966 3.88445 22.8382 3.88596 22.8382 3.88596L22.8261 19.29L20.5116 3.88596L16.3544 3.88369L13.9612 19.8435V3.88596H9.98317L8.54878 12.8507L7.15144 3.88596H3.17114V21.2378H6.30608V12.8741L7.73215 21.2378H9.39792L10.8036 12.8741V21.2378H16.8459L17.2118 18.5686H19.6451L20.0095 21.2378L25.9429 21.2415H25.946V21.2378H25.9497H25.955V15.6053L26.6809 15.4987L28.1871 21.2415H28.1902H31.2503H31.2555L31.254 21.2378H31.2593H31.2624L29.2873 14.5082C30.2877 13.7664 31.4189 11.8866 31.1179 10.087V10.0863C31.121 10.1097 32.9826 21.2476 32.9826 21.2476L36.6324 21.2378L39.1269 5.51014V21.2378H45.0437V18.1164H42.2339V14.1377H45.0437V10.9694H42.2339V7.04963ZM25.9551 6.97394H25.9702C26.2152 6.97167 28.0451 7.04653 28.0451 9.73384C28.0451 11.138 27.4228 12.0242 26.6916 12.3803C26.4504 12.496 26.2001 12.5542 25.9551 12.5542V6.97394ZM17.5808 15.8056H19.3342L18.4412 8.3864L17.5808 15.8056Z" fill="white"/>
</svg>
