<svg width="186" height="26" viewBox="0 0 186 26" fill="none" xmlns="http://www.w3.org/2000/svg">
<path fill-rule="evenodd" clip-rule="evenodd" d="M95.9251 4.93456C95.7867 5.18399 95.527 5.21809 95.2428 5.14891C92.5414 4.48638 89.6408 5.69713 88.2422 8.24918C86.8259 10.8337 87.4196 13.9856 89.4936 15.9001C89.6045 16.0024 89.6479 16.0767 89.6717 16.2302C89.6956 16.3838 89.6294 16.5818 89.6294 16.5818L88.1024 19.3879C88.1024 19.3879 88.0161 19.5852 87.8011 19.6349C87.5865 19.6846 87.4758 19.6444 87.4027 19.5951C83.3593 16.5088 82.0596 10.835 84.5775 6.24096C87.0827 1.66972 92.5236 -0.287925 97.2841 1.41372C97.5331 1.55207 97.6251 1.86417 97.4874 2.11376L95.9251 4.93456ZM104.183 10.2477C103.765 6.21789 101.055 3.73347 100.119 2.97099C99.9488 2.83231 99.78 2.86966 99.7019 2.89223C99.623 2.9144 99.4486 3.11421 99.4486 3.11421L97.8783 5.99956C97.8783 5.99956 97.7989 6.21951 97.8266 6.32766C97.8319 6.34822 97.8365 6.36842 97.8409 6.38828C97.8601 6.47339 97.8779 6.55237 97.9461 6.62735C100.038 8.93306 100.5 12.0814 99.2841 14.3004C97.8779 16.8662 94.9338 18.0626 92.2203 17.377C92.0665 17.3381 91.8748 17.3114 91.7884 17.3458C91.6441 17.4033 91.5643 17.6035 91.5643 17.6035L89.7446 20.9474L89.7463 20.9479L89.2257 21.8982L89.233 21.9024L89.223 21.9192C89.216 21.931 89.2091 21.9426 89.2025 21.9549C88.6566 22.9509 89.0217 24.2007 90.018 24.7464C91.0134 25.2924 92.2636 24.9274 92.8092 23.9316C92.8289 23.8955 92.8472 23.859 92.8648 23.8225L94.0044 21.7429C97.6172 21.6538 101.09 19.6996 102.949 16.3087C103.348 15.5805 104.497 13.2784 104.183 10.2477ZM119.554 17.3185H118.392V6.30493H119.554V17.3185ZM112.81 16.3989C113.534 16.3989 114.158 16.2649 114.681 15.9984C115.204 15.732 115.717 15.3575 116.22 14.8743L117.005 15.6442C116.733 15.9257 116.448 16.1799 116.152 16.4059C115.855 16.6321 115.535 16.8258 115.194 16.9864C114.852 17.1476 114.485 17.2735 114.093 17.3639C113.7 17.4542 113.262 17.4997 112.78 17.4997C112.016 17.4997 111.311 17.3585 110.668 17.0774C110.024 16.7961 109.466 16.411 108.993 15.9234C108.52 15.4351 108.151 14.859 107.884 14.1955C107.617 13.5317 107.484 12.8171 107.484 12.0532C107.484 11.2992 107.617 10.59 107.884 9.92594C108.151 9.2614 108.52 8.68104 108.993 8.1837C109.466 7.68538 110.029 7.29327 110.683 7.00654C111.336 6.71998 112.05 6.57629 112.825 6.57629C113.308 6.57629 113.743 6.61673 114.13 6.69713C114.517 6.77769 114.877 6.89096 115.209 7.03614C115.541 7.18262 115.847 7.35805 116.129 7.56421C116.411 7.77088 116.682 7.99973 116.944 8.25144L116.129 9.12576C115.677 8.70389 115.192 8.35683 114.673 8.08473C114.156 7.81379 113.534 7.67782 112.81 7.67782C112.226 7.67782 111.686 7.78847 111.188 8.00943C110.691 8.23138 110.258 8.53751 109.891 8.93012C109.523 9.32273 109.237 9.78192 109.031 10.3103C108.825 10.8384 108.721 11.4099 108.721 12.0231C108.721 12.6369 108.825 13.21 109.031 13.7428C109.237 14.2762 109.523 14.7388 109.891 15.1316C110.258 15.5231 110.69 15.8325 111.188 16.059C111.686 16.2854 112.226 16.3989 112.81 16.3989ZM121.228 7.81387H122.556V6.53099H121.228V7.81387ZM122.466 17.3185H121.303V9.51862H122.466V17.3185ZM124.592 12.9884C124.632 12.6063 124.723 12.2545 124.862 11.9323C125.002 11.611 125.182 11.3315 125.402 11.0951C125.622 10.859 125.877 10.6729 126.167 10.5368C126.457 10.4013 126.772 10.3337 127.111 10.3337C127.501 10.3337 127.844 10.4062 128.139 10.5519C128.434 10.6977 128.684 10.8916 128.889 11.1329C129.094 11.3744 129.253 11.6559 129.369 11.9778C129.483 12.3 129.555 12.6363 129.586 12.9884H124.592ZM129.828 10.5598C129.515 10.1877 129.133 9.89311 128.681 9.67724C128.229 9.46071 127.715 9.3522 127.142 9.3522C126.599 9.3522 126.099 9.45792 125.641 9.66951C125.183 9.88028 124.789 10.1701 124.457 10.5366C124.125 10.9044 123.866 11.3364 123.679 11.8341C123.493 12.3324 123.4 12.8628 123.4 13.4264C123.4 14.0295 123.505 14.5828 123.714 15.0859C123.922 15.5889 124.204 16.0193 124.559 16.3757C124.913 16.7331 125.327 17.0093 125.799 17.2057C126.272 17.4011 126.775 17.4999 127.308 17.4999C128.052 17.4999 128.676 17.366 129.179 17.0999C129.682 16.8333 130.129 16.4786 130.521 16.0362L129.798 15.3875C129.475 15.7192 129.121 15.9859 128.733 16.1871C128.346 16.3885 127.881 16.489 127.338 16.489C126.996 16.489 126.669 16.4311 126.358 16.3151C126.045 16.2 125.764 16.029 125.513 15.8028C125.261 15.5762 125.055 15.2992 124.894 14.9728C124.733 14.646 124.632 14.2711 124.592 13.8484H130.763C130.773 13.7781 130.778 13.7126 130.778 13.6528V13.4864C130.778 12.913 130.698 12.3752 130.537 11.8716C130.375 11.3697 130.139 10.9317 129.828 10.5598ZM136.851 9.57877C137.217 9.7297 137.53 9.94392 137.786 10.2203C138.042 10.4968 138.239 10.8263 138.375 11.2084C138.51 11.5908 138.578 12.0133 138.578 12.4756V17.3188H137.417V12.762C137.417 12.038 137.23 11.4645 136.858 11.042C136.485 10.6198 135.952 10.4087 135.259 10.4087C134.927 10.4087 134.617 10.4666 134.331 10.5823C134.044 10.6977 133.795 10.8638 133.584 11.0797C133.373 11.2963 133.209 11.5553 133.094 11.8571C132.978 12.1587 132.92 12.4911 132.92 12.8528V17.3188H131.759V9.5186H132.921V10.8768C133.182 10.4542 133.524 10.0945 133.946 9.79777C134.368 9.50117 134.917 9.35255 135.591 9.35255C136.063 9.35255 136.483 9.42785 136.851 9.57877ZM141.565 7.1651H140.403V9.5186H139.317V10.5445H140.403V15.2515C140.403 15.644 140.459 15.981 140.569 16.2626C140.68 16.5441 140.833 16.7733 141.03 16.9492C141.226 17.1248 141.459 17.2533 141.731 17.3339C142.002 17.4145 142.294 17.4546 142.606 17.4546C142.888 17.4546 143.141 17.4266 143.368 17.3709C143.595 17.316 143.808 17.2331 144.01 17.1223V16.1267C143.808 16.2274 143.62 16.2976 143.444 16.3381C143.267 16.3784 143.079 16.3978 142.877 16.3978C142.486 16.3978 142.169 16.3027 141.928 16.1119C141.685 15.9205 141.566 15.5838 141.566 15.1009H141.565V10.5445H144.039V9.5186H141.565V7.1651ZM151.462 10.4843V10.4541H151.462C151.462 9.41271 150.739 8.85503 149.576 8.85503H147.781V12.0834H149.622C150.783 12.0834 151.462 11.3895 151.462 10.4843ZM145.458 6.75735H149.773C152.292 6.75735 153.816 8.25133 153.816 10.4085V10.4389C153.815 12.883 151.915 14.1503 149.547 14.1503H147.782V17.3186H145.458V6.75735ZM160.484 13.3209C160.484 14.5122 159.7 15.5233 158.387 15.5233C157.121 15.5233 156.26 14.4822 156.26 13.2902V13.2601C156.26 12.0681 157.045 11.0575 158.358 11.0575C159.625 11.0575 160.484 12.0982 160.484 13.2902V13.3209ZM158.387 9.08068C155.868 9.08068 153.997 10.9671 153.997 13.2902V13.3209C153.997 15.644 155.853 17.4999 158.358 17.4999C160.877 17.4999 162.748 15.6139 162.748 13.2902V13.2599C162.748 10.9369 160.892 9.08068 158.387 9.08068ZM166.037 8.34195H163.623V6.30493H166.037V8.34195ZM163.683 17.319H165.977V9.23205H163.683V17.319ZM169.597 10.379C170.125 9.70001 170.804 9.08085 171.966 9.08085C173.7 9.08085 174.712 10.2281 174.712 12.0839V17.3188H172.419V17.3187V12.8077C172.419 11.7212 171.906 11.1636 171.03 11.1636C170.156 11.1636 169.597 11.7212 169.597 12.8077V17.3187H167.304V9.23177H169.597V10.379ZM178.77 7.1651H176.476V9.23237H175.511V11.1934H176.476V15.0259C176.476 16.8961 177.428 17.4544 178.831 17.4544C179.599 17.4544 180.158 17.2732 180.641 16.987V15.1463C180.309 15.3275 179.932 15.4327 179.509 15.4327C178.996 15.4327 178.77 15.1765 178.77 14.6483V11.1934H180.671V9.23237H178.77V7.1651ZM183.216 9.25941C183.992 9.25941 184.59 8.62562 184.59 7.86704V7.858C184.59 7.09942 184.001 6.4745 183.216 6.4745C182.439 6.4745 181.841 7.10829 181.841 7.86704V7.87608C181.841 8.63466 182.43 9.25941 183.216 9.25941ZM181.662 7.86704C181.662 7.01902 182.35 6.305 183.216 6.305C184.09 6.305 184.769 7.01014 184.769 7.858V7.86704C184.769 8.71489 184.081 9.42908 183.216 9.42908C182.341 9.42908 181.662 8.72393 181.662 7.87608V7.86704ZM183.296 7.8046H183.001V7.41166H183.296C183.457 7.41166 183.546 7.48318 183.546 7.60829C183.546 7.72436 183.457 7.8046 183.296 7.8046ZM184.01 7.57245C184.01 7.18872 183.724 7.01905 183.323 7.01905H182.537V8.66149H183.001V8.17057H183.198L183.528 8.66149H184.064L183.671 8.09017C183.876 8.00978 184.01 7.83123 184.01 7.57245ZM95.718 7.7081C97.6874 8.78764 98.4096 11.2596 97.33 13.2295C96.2504 15.1994 93.7786 15.9213 91.8086 14.8416C89.8388 13.7623 89.1167 11.2902 90.1962 9.32019C91.2762 7.35037 93.7476 6.6284 95.718 7.7081Z" fill="white"/>
<path d="M2.46777 13.1035V17H1.15527V7.04688H4.82617C5.91536 7.04688 6.76758 7.32487 7.38281 7.88086C8.0026 8.43685 8.3125 9.17285 8.3125 10.0889C8.3125 11.055 8.00944 11.8001 7.40332 12.3242C6.80176 12.8438 5.93815 13.1035 4.8125 13.1035H2.46777ZM2.46777 12.0303H4.82617C5.52799 12.0303 6.06576 11.8662 6.43945 11.5381C6.81315 11.2054 7 10.7269 7 10.1025C7 9.51009 6.81315 9.03613 6.43945 8.68066C6.06576 8.3252 5.55306 8.14062 4.90137 8.12695H2.46777V12.0303ZM9.3584 13.2334C9.3584 12.5088 9.49967 11.8571 9.78223 11.2783C10.0693 10.6995 10.4658 10.2529 10.9717 9.93848C11.4821 9.62402 12.0632 9.4668 12.7148 9.4668C13.722 9.4668 14.5355 9.81543 15.1553 10.5127C15.7796 11.21 16.0918 12.1374 16.0918 13.2949V13.3838C16.0918 14.1038 15.9528 14.751 15.6748 15.3252C15.4014 15.8949 15.0072 16.3392 14.4922 16.6582C13.9818 16.9772 13.3939 17.1367 12.7285 17.1367C11.7259 17.1367 10.9124 16.7881 10.2881 16.0908C9.66829 15.3936 9.3584 14.4707 9.3584 13.3223V13.2334ZM10.6299 13.3838C10.6299 14.2041 10.819 14.8626 11.1973 15.3594C11.5801 15.8561 12.0905 16.1045 12.7285 16.1045C13.3711 16.1045 13.8815 15.8538 14.2598 15.3525C14.638 14.8467 14.8271 14.1403 14.8271 13.2334C14.8271 12.4222 14.6335 11.766 14.2461 11.2646C13.8633 10.7588 13.3529 10.5059 12.7148 10.5059C12.0905 10.5059 11.5869 10.7542 11.2041 11.251C10.8213 11.7477 10.6299 12.4587 10.6299 13.3838ZM24.2266 15.2568L25.6484 9.60352H26.9131L24.7598 17H23.7344L21.9365 11.3945L20.1865 17H19.1611L17.0146 9.60352H18.2725L19.7285 15.1406L21.4512 9.60352H22.4697L24.2266 15.2568ZM31.2744 17.1367C30.2718 17.1367 29.4561 16.8086 28.8271 16.1523C28.1982 15.4915 27.8838 14.6097 27.8838 13.5068V13.2744C27.8838 12.5407 28.0228 11.8867 28.3008 11.3125C28.5833 10.7337 28.9753 10.2826 29.4766 9.95898C29.9824 9.63086 30.5293 9.4668 31.1172 9.4668C32.0788 9.4668 32.8262 9.78353 33.3594 10.417C33.8926 11.0505 34.1592 11.9574 34.1592 13.1377V13.6641H29.1484C29.1667 14.3932 29.3786 14.9834 29.7842 15.4346C30.1943 15.8812 30.7139 16.1045 31.3428 16.1045C31.7894 16.1045 32.1676 16.0133 32.4775 15.8311C32.7874 15.6488 33.0586 15.4072 33.291 15.1064L34.0635 15.708C33.4437 16.6605 32.514 17.1367 31.2744 17.1367ZM31.1172 10.5059C30.6068 10.5059 30.1784 10.6927 29.832 11.0664C29.4857 11.4355 29.2715 11.9551 29.1895 12.625H32.8945V12.5293C32.8581 11.8867 32.6849 11.39 32.375 11.0391C32.0651 10.6836 31.6458 10.5059 31.1172 10.5059ZM39.2041 10.7383C39.0127 10.7064 38.8053 10.6904 38.582 10.6904C37.7526 10.6904 37.1898 11.0436 36.8936 11.75V17H35.6289V9.60352H36.8594L36.8799 10.458C37.2946 9.7972 37.8825 9.4668 38.6436 9.4668C38.8896 9.4668 39.0765 9.4987 39.2041 9.5625V10.7383ZM43.3057 17.1367C42.3031 17.1367 41.4873 16.8086 40.8584 16.1523C40.2295 15.4915 39.915 14.6097 39.915 13.5068V13.2744C39.915 12.5407 40.054 11.8867 40.332 11.3125C40.6146 10.7337 41.0065 10.2826 41.5078 9.95898C42.0137 9.63086 42.5605 9.4668 43.1484 9.4668C44.11 9.4668 44.8574 9.78353 45.3906 10.417C45.9238 11.0505 46.1904 11.9574 46.1904 13.1377V13.6641H41.1797C41.1979 14.3932 41.4098 14.9834 41.8154 15.4346C42.2256 15.8812 42.7451 16.1045 43.374 16.1045C43.8206 16.1045 44.1989 16.0133 44.5088 15.8311C44.8187 15.6488 45.0898 15.4072 45.3223 15.1064L46.0947 15.708C45.4749 16.6605 44.5452 17.1367 43.3057 17.1367ZM43.1484 10.5059C42.638 10.5059 42.2096 10.6927 41.8633 11.0664C41.5169 11.4355 41.3027 11.9551 41.2207 12.625H44.9258V12.5293C44.8893 11.8867 44.7161 11.39 44.4062 11.0391C44.0964 10.6836 43.6771 10.5059 43.1484 10.5059ZM47.3525 13.2402C47.3525 12.1055 47.6214 11.194 48.1592 10.5059C48.6969 9.81315 49.401 9.4668 50.2715 9.4668C51.1374 9.4668 51.8232 9.76302 52.3291 10.3555V6.5H53.5938V17H52.4316L52.3701 16.207C51.8643 16.8268 51.1602 17.1367 50.2578 17.1367C49.401 17.1367 48.7015 16.7858 48.1592 16.084C47.6214 15.3822 47.3525 14.4661 47.3525 13.3359V13.2402ZM48.6172 13.3838C48.6172 14.2223 48.7904 14.8786 49.1367 15.3525C49.4831 15.8265 49.9616 16.0635 50.5723 16.0635C51.3743 16.0635 51.96 15.7035 52.3291 14.9834V11.5859C51.9508 10.8887 51.3698 10.54 50.5859 10.54C49.9661 10.54 49.4831 10.7793 49.1367 11.2578C48.7904 11.7363 48.6172 12.445 48.6172 13.3838ZM65.2969 13.3838C65.2969 14.514 65.0371 15.4232 64.5176 16.1113C63.998 16.7949 63.3008 17.1367 62.4258 17.1367C61.4915 17.1367 60.7692 16.8063 60.2588 16.1455L60.1973 17H59.0352V6.5H60.2998V10.417C60.8102 9.78353 61.5143 9.4668 62.4121 9.4668C63.3099 9.4668 64.014 9.80632 64.5244 10.4854C65.0394 11.1644 65.2969 12.0941 65.2969 13.2744V13.3838ZM64.0322 13.2402C64.0322 12.3789 63.8659 11.7135 63.5332 11.2441C63.2005 10.7747 62.722 10.54 62.0977 10.54C61.2637 10.54 60.6644 10.9274 60.2998 11.7021V14.9014C60.6872 15.6761 61.291 16.0635 62.1113 16.0635C62.7174 16.0635 63.1891 15.8288 63.5264 15.3594C63.8636 14.89 64.0322 14.1836 64.0322 13.2402ZM69.2344 15.1475L70.957 9.60352H72.3105L69.3369 18.1416C68.8766 19.3721 68.1452 19.9873 67.1426 19.9873L66.9033 19.9668L66.4316 19.8779V18.8525L66.7734 18.8799C67.2018 18.8799 67.5345 18.7933 67.7715 18.6201C68.013 18.4469 68.2113 18.1302 68.3662 17.6699L68.6465 16.918L66.0078 9.60352H67.3887L69.2344 15.1475Z" fill="white"/>
</svg>
