<svg width="20" height="20" viewBox="0 0 20 20" fill="none" xmlns="http://www.w3.org/2000/svg">
<path fill-rule="evenodd" clip-rule="evenodd" d="M8.63636 0H11.3636L12.1242 3.0424C12.5754 3.17997 13.008 3.36023 13.4172 3.57846L16.1068 1.9647L18.0353 3.89317L16.4215 6.58278C16.6398 6.99203 16.82 7.42459 16.9576 7.87576L20 8.63636V11.3636L16.9576 12.1242C16.82 12.5754 16.6398 13.008 16.4215 13.4172L18.0353 16.1068L16.1068 18.0353L13.4172 16.4215C13.008 16.6398 12.5754 16.82 12.1242 16.9576L11.3636 20H8.63636L7.87576 16.9576C7.42459 16.82 6.99203 16.6398 6.58278 16.4215L3.89317 18.0353L1.9647 16.1068L3.57846 13.4172C3.36023 13.008 3.17997 12.5754 3.0424 12.1242L0 11.3636V8.63636L3.0424 7.87576C3.17997 7.42459 3.36023 6.99203 3.57846 6.58278L1.9647 3.89317L3.89317 1.9647L6.58278 3.57846C6.99203 3.36023 7.42459 3.17997 7.87576 3.0424L8.63636 0ZM10 14C14 14 16.5306 10 16.5306 10C16.5306 10 14 6 10 6C6 6 3.46939 10 3.46939 10C3.46939 10 6 14 10 14ZM10 13.0833C11.6569 13.0833 13 11.7402 13 10.0833C13 8.42648 11.6569 7.08333 10 7.08333C8.34315 7.08333 7 8.42648 7 10.0833C7 11.7402 8.34315 13.0833 10 13.0833ZM10 12C11.0585 12 11.9167 11.1419 11.9167 10.0833C11.9167 9.02479 11.0585 8.16667 10 8.16667C8.94145 8.16667 8.08333 9.02479 8.08333 10.0833C8.08333 11.1419 8.94145 12 10 12Z" fill="#A9A9BE"/>
</svg>
