<svg width="356" height="100" viewBox="0 0 356 100" fill="none" xmlns="http://www.w3.org/2000/svg">
<g opacity="0.35">
<path fill-rule="evenodd" clip-rule="evenodd" d="M24.2 15H15V21.8H24.2V15ZM35 28.2H25.8V35H35V28.2ZM15 23.4H24.2V35H15V23.4ZM35 15H25.8V26.6H35V15Z" fill="white"/>
</g>
<g opacity="0.35">
<path fill-rule="evenodd" clip-rule="evenodd" d="M91 15H94V35H91V15ZM98 15H101V35H98V15ZM107 15H104L108 35H111L107 15Z" fill="white"/>
</g>
<g opacity="0.35">
<path fill-rule="evenodd" clip-rule="evenodd" d="M178.489 17.7539C178.363 17.9807 178.127 18.0117 177.869 17.9488C175.412 17.3463 172.775 18.4473 171.503 20.768C170.215 23.1182 170.755 25.9843 172.641 27.7253C172.742 27.8182 172.781 27.8858 172.803 28.0254C172.824 28.1651 172.764 28.3451 172.764 28.3451L171.376 30.8968C171.376 30.8968 171.297 31.0762 171.102 31.1213C170.906 31.1666 170.806 31.1301 170.739 31.0852C167.063 28.2787 165.881 23.1194 168.17 18.9418C170.448 14.785 175.396 13.0049 179.725 14.5523C179.951 14.6781 180.035 14.9619 179.91 15.1888L178.489 17.7539ZM185.998 22.5853C185.618 18.9209 183.153 16.6617 182.303 15.9683C182.148 15.8422 181.994 15.8762 181.923 15.8967C181.852 15.9169 181.693 16.0986 181.693 16.0986L180.265 18.7223C180.265 18.7223 180.193 18.9223 180.218 19.0207C180.223 19.0394 180.227 19.0577 180.231 19.0758C180.249 19.1532 180.265 19.225 180.327 19.2932C182.229 21.3898 182.649 24.2527 181.544 26.2705C180.265 28.6037 177.588 29.6916 175.12 29.0682C174.98 29.0328 174.806 29.0085 174.727 29.0398C174.596 29.0921 174.524 29.2742 174.524 29.2742L172.869 32.3149L172.87 32.3153L172.397 33.1795L172.404 33.1833L172.395 33.1986C172.388 33.2093 172.382 33.2199 172.376 33.231C171.88 34.1368 172.212 35.2732 173.117 35.7695C174.023 36.2659 175.16 35.934 175.656 35.0285C175.674 34.9957 175.69 34.9625 175.706 34.9293L176.742 33.0383C180.028 32.9572 183.186 31.1803 184.876 28.0968C185.239 27.4346 186.284 25.3412 185.998 22.5853ZM179.767 25.2968C180.748 23.5055 180.092 21.2576 178.301 20.276C176.509 19.2941 174.262 19.9507 173.28 21.7419C172.298 23.5332 172.955 25.7812 174.746 26.7627C176.537 27.7444 178.785 27.0881 179.767 25.2968Z" fill="white"/>
</g>
<g opacity="0.35">
<path fill-rule="evenodd" clip-rule="evenodd" d="M254.364 15H251.636L250.876 18.0424C250.425 18.18 249.992 18.3602 249.583 18.5785L246.893 16.9647L244.965 18.8932L246.578 21.5828C246.36 21.992 246.18 22.4246 246.042 22.8758L243 23.6364V26.3636L246.042 27.1242C246.18 27.5754 246.36 28.008 246.578 28.4172L244.965 31.1068L246.893 33.0353L249.583 31.4215C249.992 31.6398 250.425 31.82 250.876 31.9576L251.636 35H254.364L255.124 31.9576C255.575 31.82 256.008 31.6398 256.417 31.4215L259.107 33.0353L261.035 31.1068L259.422 28.4172C259.64 28.008 259.82 27.5754 259.958 27.1242L263 26.3636V23.6364L259.958 22.8758C259.82 22.4246 259.64 21.992 259.422 21.5828L261.035 18.8932L259.107 16.9647L256.417 18.5785C256.008 18.3602 255.575 18.18 255.124 18.0424L254.364 15ZM257.545 25C257.545 27.5104 255.51 29.5455 253 29.5455C250.49 29.5455 248.455 27.5104 248.455 25C248.455 22.4896 250.49 20.4545 253 20.4545C255.51 20.4545 257.545 22.4896 257.545 25Z" fill="white"/>
</g>
<g opacity="0.35">
<path fill-rule="evenodd" clip-rule="evenodd" d="M322.538 16.2692C322.538 15.5683 323.107 15 323.808 15H338.192C338.893 15 339.462 15.5683 339.462 16.2692C339.462 16.9702 338.893 17.5385 338.192 17.5385H323.808C323.107 17.5385 322.538 16.9702 322.538 16.2692ZM320 23.8846C320 23.1836 320.568 22.6154 321.269 22.6154H340.731C341.432 22.6154 342 23.1836 342 23.8846C342 24.5856 341.432 25.1538 340.731 25.1538H321.269C320.568 25.1538 320 24.5856 320 23.8846ZM323.808 30.2308C323.107 30.2308 322.538 30.799 322.538 31.5C322.538 32.201 323.107 32.7692 323.808 32.7692H338.192C338.893 32.7692 339.462 32.201 339.462 31.5C339.462 30.799 338.893 30.2308 338.192 30.2308H323.808Z" fill="white"/>
</g>
<path fill-rule="evenodd" clip-rule="evenodd" d="M24.2 65H15V71.8H24.2V65ZM35 78.2H25.8V85H35V78.2ZM15 73.4H24.2V85H15V73.4ZM35 65H25.8V76.6H35V65Z" fill="white"/>
<path fill-rule="evenodd" clip-rule="evenodd" d="M91 65H94V85H91V65ZM98 65H101V85H98V65ZM107 65H104L108 85H111L107 65Z" fill="white"/>
<path fill-rule="evenodd" clip-rule="evenodd" d="M178.489 67.7539C178.363 67.9807 178.127 68.0117 177.869 67.9488C175.412 67.3463 172.775 68.4473 171.503 70.768C170.215 73.1182 170.755 75.9843 172.641 77.7253C172.742 77.8182 172.781 77.8858 172.803 78.0254C172.824 78.1651 172.764 78.3451 172.764 78.3451L171.376 80.8968C171.376 80.8968 171.297 81.0762 171.102 81.1213C170.906 81.1666 170.806 81.1301 170.739 81.0852C167.063 78.2787 165.881 73.1194 168.17 68.9418C170.448 64.785 175.396 63.0049 179.725 64.5523C179.951 64.6781 180.035 64.9619 179.91 65.1888L178.489 67.7539ZM185.998 72.5853C185.618 68.9209 183.153 66.6617 182.303 65.9683C182.148 65.8422 181.994 65.8762 181.923 65.8967C181.852 65.9169 181.693 66.0986 181.693 66.0986L180.265 68.7223C180.265 68.7223 180.193 68.9223 180.218 69.0207C180.223 69.0394 180.227 69.0577 180.231 69.0758C180.249 69.1532 180.265 69.225 180.327 69.2932C182.229 71.3898 182.649 74.2527 181.544 76.2705C180.265 78.6037 177.588 79.6916 175.12 79.0682C174.98 79.0328 174.806 79.0085 174.727 79.0398C174.596 79.0921 174.524 79.2742 174.524 79.2742L172.869 82.3149L172.87 82.3153L172.397 83.1795L172.404 83.1833L172.395 83.1986C172.388 83.2093 172.382 83.2199 172.376 83.231C171.88 84.1368 172.212 85.2732 173.117 85.7695C174.023 86.2659 175.16 85.934 175.656 85.0285C175.674 84.9957 175.69 84.9625 175.706 84.9293L176.742 83.0383C180.028 82.9572 183.186 81.1803 184.876 78.0968C185.239 77.4346 186.284 75.3412 185.998 72.5853ZM179.767 75.2968C180.748 73.5055 180.092 71.2576 178.301 70.276C176.509 69.2941 174.262 69.9507 173.28 71.7419C172.298 73.5332 172.955 75.7812 174.746 76.7627C176.537 77.7444 178.785 77.0881 179.767 75.2968Z" fill="white"/>
<path fill-rule="evenodd" clip-rule="evenodd" d="M254.364 65H251.636L250.876 68.0424C250.425 68.18 249.992 68.3602 249.583 68.5785L246.893 66.9647L244.965 68.8932L246.578 71.5828C246.36 71.992 246.18 72.4246 246.042 72.8758L243 73.6364V76.3636L246.042 77.1242C246.18 77.5754 246.36 78.008 246.578 78.4172L244.965 81.1068L246.893 83.0353L249.583 81.4215C249.992 81.6398 250.425 81.82 250.876 81.9576L251.636 85H254.364L255.124 81.9576C255.575 81.82 256.008 81.6398 256.417 81.4215L259.107 83.0353L261.035 81.1068L259.422 78.4172C259.64 78.008 259.82 77.5754 259.958 77.1242L263 76.3636V73.6364L259.958 72.8758C259.82 72.4246 259.64 71.992 259.422 71.5828L261.035 68.8932L259.107 66.9647L256.417 68.5785C256.008 68.3602 255.575 68.18 255.124 68.0424L254.364 65ZM257.545 75C257.545 77.5104 255.51 79.5455 253 79.5455C250.49 79.5455 248.455 77.5104 248.455 75C248.455 72.4896 250.49 70.4545 253 70.4545C255.51 70.4545 257.545 72.4896 257.545 75Z" fill="white"/>
<path fill-rule="evenodd" clip-rule="evenodd" d="M322.538 66.2692C322.538 65.5683 323.107 65 323.808 65H338.192C338.893 65 339.462 65.5683 339.462 66.2692C339.462 66.9702 338.893 67.5385 338.192 67.5385H323.808C323.107 67.5385 322.538 66.9702 322.538 66.2692ZM320 73.8846C320 73.1836 320.568 72.6154 321.269 72.6154H340.731C341.432 72.6154 342 73.1836 342 73.8846C342 74.5856 341.432 75.1538 340.731 75.1538H321.269C320.568 75.1538 320 74.5856 320 73.8846ZM323.808 80.2308C323.107 80.2308 322.538 80.799 322.538 81.5C322.538 82.201 323.107 82.7692 323.808 82.7692H338.192C338.893 82.7692 339.462 82.201 339.462 81.5C339.462 80.799 338.893 80.2308 338.192 80.2308H323.808Z" fill="white"/>
</svg>
