<svg width="210" height="50" viewBox="0 0 210 50" fill="none" xmlns="http://www.w3.org/2000/svg">
<path fill-rule="evenodd" clip-rule="evenodd" d="M26.1115 8.53155C25.8254 9.04702 25.2886 9.1175 24.7014 8.97453C19.1185 7.6053 13.1239 10.1075 10.2334 15.3818C7.30634 20.7231 8.53345 27.2371 12.8197 31.1938C13.0489 31.405 13.1385 31.5587 13.1878 31.8759C13.2372 32.1933 13.1004 32.6024 13.1004 32.6024L9.94464 38.4017C9.94464 38.4017 9.7661 38.8095 9.32177 38.9122C8.87828 39.015 8.64957 38.932 8.49855 38.8299C0.142176 32.4516 -2.54394 20.7258 2.65983 11.2314C7.83709 1.78419 19.0816 -2.2616 28.92 1.25513C29.4346 1.54106 29.6247 2.18607 29.3401 2.70189L26.1115 8.53155ZM43.1779 19.5119C42.3146 11.1838 36.7124 6.04928 34.7787 4.47349C34.427 4.18689 34.0783 4.26407 33.9167 4.31072C33.7538 4.35653 33.3934 4.76948 33.3934 4.76948L30.1481 10.7325C30.1481 10.7325 29.9839 11.1871 30.0413 11.4106C30.0522 11.4531 30.0616 11.4948 30.0708 11.5358L30.0708 11.5359C30.1105 11.7118 30.1473 11.875 30.2881 12.03C34.6116 16.7951 35.5659 23.3017 33.0534 27.8876C30.1471 33.1902 24.0628 35.6627 18.4549 34.246C18.137 34.1655 17.7408 34.1102 17.5622 34.1814C17.2641 34.3002 17.0991 34.714 17.0991 34.714L13.3384 41.6248C13.3395 41.6252 13.3402 41.6254 13.3409 41.6255C13.3412 41.6256 13.3415 41.6257 13.3419 41.6258L12.266 43.5897L12.2811 43.5984L12.2605 43.6333C12.246 43.6575 12.2316 43.6816 12.218 43.7068C11.0899 45.7654 11.8443 48.3481 13.9034 49.4761C15.9606 50.6043 18.5444 49.8501 19.672 47.792C19.7126 47.7175 19.7505 47.642 19.7867 47.5665L22.142 43.2689C29.6085 43.0846 36.7864 39.046 40.6268 32.0381C41.4517 30.5331 43.8271 25.7755 43.1779 19.5119ZM29.0149 25.6745C31.2462 21.6034 29.7536 16.4946 25.6835 14.2635C21.6113 12.0321 16.5037 13.5242 14.2718 17.5952C12.0408 21.6665 13.533 26.7754 17.604 29.0061C21.6753 31.2374 26.7837 29.7456 29.0149 25.6745Z" fill="white"/>
<path fill-rule="evenodd" clip-rule="evenodd" d="M72.5438 34.1251H74.9436V11.3638H72.5438V34.1251ZM64.8734 31.3968C63.7929 31.9476 62.5038 32.2245 61.0074 32.2245C59.8005 32.2245 58.684 31.9901 57.6545 31.5222C56.6263 31.054 55.7327 30.4146 54.9737 29.6055C54.2146 28.7938 53.6237 27.8377 53.197 26.7354C52.7705 25.6342 52.5572 24.4498 52.5572 23.1814C52.5572 21.914 52.7705 20.7329 53.197 19.6416C53.6234 18.5495 54.2146 17.6005 54.9737 16.7892C55.7331 15.9778 56.6267 15.3451 57.6545 14.8864C58.684 14.4297 59.8005 14.2011 61.0074 14.2011C62.5038 14.2011 63.7878 14.4821 64.8578 15.042C65.9287 15.6044 66.9311 16.3216 67.8668 17.1935L69.5508 15.3866C69.0098 14.8664 68.4485 14.3934 67.8668 13.9663C67.2838 13.5402 66.6504 13.1777 65.9644 12.8749C65.2781 12.5749 64.5346 12.3408 63.7355 12.1743C62.9343 12.0082 62.0363 11.9246 61.0383 11.9246C59.4366 11.9246 57.961 12.2215 56.6107 12.8138C55.2597 13.4063 54.0957 14.2167 53.1185 15.2466C52.1413 16.2744 51.3775 17.4738 50.8263 18.8472C50.2752 20.2195 50 21.6853 50 23.2436C50 24.8222 50.2752 26.2992 50.8263 27.6709C51.3775 29.0422 52.1413 30.2328 53.1185 31.2419C54.0957 32.2497 55.2499 33.0454 56.5791 33.6268C57.9093 34.2078 59.3653 34.4997 60.9446 34.4997C61.9411 34.4997 62.847 34.4056 63.658 34.219C64.4691 34.0322 65.2261 33.7719 65.9342 33.4389C66.6396 33.1069 67.3001 32.7067 67.913 32.2392C68.5263 31.772 69.1138 31.2467 69.6758 30.665L68.0537 29.0738C67.015 30.0724 65.9549 30.8464 64.8734 31.3968ZM81.1486 14.4822H78.4049V11.831H81.1486V14.4822ZM78.5599 34.1251H80.9618V18.0054H78.5599V34.1251ZM85.915 22.9936C85.6262 23.6595 85.4397 24.3867 85.3564 25.1763H95.6775C95.6143 24.4485 95.4655 23.7537 95.2283 23.0877C94.9891 22.4224 94.6602 21.8407 94.2368 21.3416C93.8135 20.8428 93.2956 20.4422 92.6874 20.1408C92.0765 19.8398 91.3691 19.6899 90.5631 19.6899C89.8612 19.6899 89.2102 19.8296 88.6115 20.1096C88.0114 20.3909 87.4848 20.7755 87.0301 21.2634C86.5762 21.752 86.2045 22.3297 85.915 22.9936ZM93.8067 18.3332C94.7417 18.7793 95.5314 19.3882 96.1769 20.1571C96.8208 20.9257 97.3084 21.8309 97.6424 22.8682C97.9747 23.9089 98.1412 25.0204 98.1412 26.2055V26.5494C98.1412 26.673 98.1296 26.8083 98.1099 26.9537H85.3567C85.4397 27.8273 85.6483 28.6019 85.9809 29.2774C86.3129 29.9519 86.74 30.5244 87.2592 30.9926C87.779 31.4601 88.3594 31.8135 89.0053 32.0514C89.6488 32.2912 90.3256 32.4108 91.0324 32.4108C92.1543 32.4108 93.1152 32.2032 93.915 31.787C94.7159 31.3711 95.4488 30.82 96.1148 30.1343L97.6105 31.4751C96.8001 32.3894 95.8756 33.1223 94.8365 33.6735C93.7965 34.2232 92.508 34.5001 90.9688 34.5001C89.8669 34.5001 88.8276 34.2959 87.8517 33.8919C86.8745 33.4862 86.019 32.9154 85.2878 32.1767C84.5545 31.4401 83.9722 30.5506 83.542 29.5112C83.1091 28.4715 82.8937 27.3278 82.8937 26.0815C82.8937 24.9167 83.0853 23.8206 83.47 22.7907C83.856 21.7622 84.3908 20.8693 85.0764 20.1092C85.7631 19.3519 86.5776 18.7528 87.5235 18.3172C88.4708 17.8799 89.5044 17.6615 90.6263 17.6615C91.8108 17.6615 92.8723 17.8857 93.8067 18.3332ZM112.624 19.4555C112.094 18.8844 111.449 18.4416 110.691 18.1297C109.931 17.8178 109.064 17.6622 108.087 17.6622C106.694 17.6622 105.561 17.9693 104.688 18.5823C103.815 19.1956 103.108 19.939 102.569 20.8123V18.0054H100.168V34.1257H102.568V24.896C102.568 24.1485 102.687 23.4615 102.927 22.8383C103.164 22.2145 103.504 21.6794 103.94 21.2315C104.377 20.7854 104.891 20.4422 105.483 20.2037C106.075 19.9645 106.715 19.8449 107.401 19.8449C108.834 19.8449 109.936 20.2812 110.706 21.1537C111.475 22.027 111.86 23.2121 111.86 24.7085V34.1257H114.261V24.1166C114.261 23.1611 114.12 22.2879 113.841 21.4976C113.56 20.7079 113.154 20.027 112.624 19.4555ZM118.033 13.1414H120.434V18.0054H125.547V20.1256H120.434V29.5421H120.435C120.435 30.5401 120.683 31.2359 121.183 31.6314C121.682 32.0259 122.337 32.2223 123.146 32.2223C123.563 32.2223 123.952 32.1822 124.316 32.099C124.681 32.0154 125.07 31.8703 125.487 31.662V33.7197C125.07 33.9487 124.628 34.12 124.159 34.2334C123.692 34.3486 123.167 34.4064 122.586 34.4064C121.941 34.4064 121.338 34.3235 120.778 34.157C120.215 33.9905 119.733 33.7248 119.328 33.3619C118.922 32.9984 118.605 32.5247 118.376 31.943C118.148 31.361 118.033 30.6644 118.033 29.8534V20.1256H115.788V18.0054H118.033V13.1414ZM140.888 19.9387V20.0012C140.888 21.872 139.485 23.3058 137.085 23.3058H133.281V16.634H136.991C139.394 16.634 140.888 17.7865 140.888 19.9387H140.888ZM137.398 12.2988H128.48V34.1254H133.282V27.5775H136.93C141.824 27.5775 145.751 24.9585 145.752 19.9074V19.8445C145.752 15.3863 142.604 12.2988 137.398 12.2988ZM155.2 30.4152C157.913 30.4152 159.533 28.3255 159.533 25.8635V25.8C159.533 23.3366 157.758 21.1858 155.139 21.1858C152.426 21.1858 150.805 23.2744 150.805 25.7378V25.8C150.805 28.2634 152.582 30.4152 155.2 30.4152ZM146.127 25.8C146.127 20.9989 149.994 17.1003 155.2 17.1003C160.376 17.1003 164.212 20.9364 164.212 25.7375V25.8C164.212 30.6024 160.346 34.5 155.139 34.5C149.963 34.5 146.127 30.6646 146.127 25.8635V25.8ZM166.021 15.5736H171.009V11.3638H166.021V15.5736ZM170.885 34.1261H166.145V17.4132H170.885V34.1261ZM183.263 17.1007C180.861 17.1007 179.459 18.3803 178.368 19.7835V17.4126H173.628V34.1255H178.368V24.8027C178.368 22.5575 179.522 21.405 181.329 21.405C183.138 21.405 184.199 22.5575 184.199 24.8027V34.1255V34.1259H188.937V23.307C188.937 19.4716 186.847 17.1007 183.263 17.1007ZM192.584 13.1414H197.324V17.4138H201.254V21.4667H197.324V28.6067C197.324 29.6984 197.792 30.2278 198.852 30.2278C199.726 30.2278 200.505 30.0104 201.191 29.6359V33.4401C200.192 34.0316 199.038 34.406 197.449 34.406C194.55 34.406 192.584 33.2522 192.584 29.3872V21.4667H190.589V17.4138H192.584V13.1414ZM209.353 14.5921C209.353 16.1599 208.116 17.4697 206.512 17.4697C204.888 17.4697 203.671 16.1785 203.671 14.6108V14.5921C203.671 13.0241 204.907 11.7142 206.512 11.7142C208.135 11.7142 209.353 13.0057 209.353 14.5734V14.5921ZM206.512 11.3639C204.722 11.3639 203.302 12.8396 203.302 14.5921V14.6108C203.302 16.363 204.704 17.8203 206.512 17.8203C208.301 17.8203 209.722 16.3444 209.722 14.5921V14.5734C209.722 12.8212 208.32 11.3639 206.512 11.3639ZM206.069 14.4631H206.678C207.01 14.4631 207.195 14.2973 207.195 14.0574C207.195 13.7988 207.01 13.651 206.678 13.651H206.069V14.4631ZM206.733 12.8396C207.563 12.8396 208.154 13.1903 208.154 13.9833C208.154 14.5181 207.877 14.8871 207.453 15.0533L208.264 16.234H207.158L206.475 15.2194H206.069V16.234H205.11V12.8396H206.733Z" fill="white"/>
</svg>
